# xmcd CD database file
#
# Track frame offsets:
#	150
#	20503
#	41899
#	72143
#	92422
#	110037
#	135349
#	155892
#	187771
#	202116
#
# Disc length: 3977 seconds
#
# Revision: 1
# Processed by: cddbd v1.4PL0 Copyright (c) Steve Scherf et al.
# Submitted via: CDex 1.40Release
#
DISCID=870f870a
DTITLE=Mike Branton - Dirty Feet
DYEAR=2001
DGENRE=Blues
TTITLE0=Dirty Feet
TTITLE1=Once Again
TTITLE2=I'm Not Playing
TTITLE3=You Stole My Love
TTITLE4=Times Not Right
TTITLE5=ServesMe Right To Suffer
TTITLE6=Find Yourself a New Fool
TTITLE7=Unfinished Business
TTITLE8=I.O.U.
TTITLE9=Give Me One
EXTD=YEAR: 2001 ID3G: 0
EXTT0=
EXTT1=
EXTT2=
EXTT3=
EXTT4=
EXTT5=
EXTT6=
EXTT7=
EXTT8=
EXTT9=
PLAYORDER=
